<svg width="25" height="25" viewBox="0 0 25 25" fill="none" xmlns="http://www.w3.org/2000/svg">
<path fill-rule="evenodd" clip-rule="evenodd" d="M5.55538 22.8934C7.61099 24.2669 10.0277 25 12.5 25C15.8152 25 18.9946 23.683 21.3388 21.3388C23.683 18.9946 25 15.8152 25 12.5C25 10.0277 24.2669 7.61099 22.8934 5.55538C21.5199 3.49976 19.5676 1.89761 17.2836 0.951512C14.9995 0.00541616 12.4861 -0.242126 10.0614 0.24019C7.63661 0.722505 5.40933 1.91301 3.66117 3.66117C1.91301 5.40933 0.722505 7.63661 0.24019 10.0614C-0.242126 12.4861 0.00541616 14.9995 0.951512 17.2836C1.89761 19.5676 3.49976 21.5199 5.55538 22.8934ZM11.3934 1.72334C9.64184 1.90319 7.95457 2.50803 6.48133 3.49242C4.7179 4.6707 3.33953 6.34039 2.51649 8.294C4.50431 9.04703 10.1963 10.9115 15.4627 9.85874C14.6325 5.66904 12.2376 2.67255 11.3934 1.72334ZM15.7003 11.5514C14.5022 11.7861 13.2922 11.8833 12.1083 11.8833C8.64201 11.8067 5.21785 11.1283 1.98804 9.88087C1.60346 11.4244 1.56193 13.0404 1.87483 14.6135C2.13642 15.9286 2.63839 17.1767 3.34875 18.2979C5.08375 16.9536 10.0885 13.4445 15.7503 12.7835C15.751 12.3645 15.7336 11.9536 15.7003 11.5514ZM17.3667 12.6767C17.3602 12.1587 17.329 11.6517 17.2768 11.1567C19.1136 10.5901 20.8803 9.64721 22.4329 8.17571C23.0212 9.52717 23.3333 10.9975 23.3333 12.5C23.3333 12.9777 23.3018 13.453 23.2395 13.9229C21.3021 13.0011 19.311 12.6499 17.3667 12.6767ZM15.6435 14.5206C10.5196 15.239 5.90626 18.462 4.35372 19.6414C4.50965 19.8192 4.67169 19.9923 4.83968 20.1603C6.35475 21.6754 8.28507 22.7072 10.3865 23.1252C10.8361 23.2146 11.2892 23.2751 11.7431 23.3069C14.1883 20.1994 15.3146 17.223 15.6435 14.5206ZM13.8627 23.2473C16.0518 20.1313 17.0424 17.1298 17.2984 14.3817C19.167 14.3344 21.0663 14.6725 22.8783 15.6067C22.5706 16.6347 22.1102 17.6168 21.5076 18.5187C20.3172 20.3002 18.6253 21.6888 16.6457 22.5087C15.7502 22.8796 14.814 23.1267 13.8627 23.2473ZM17.0097 9.45657C16.2888 6.00057 14.6347 3.27476 13.4919 1.71214C16.0013 1.94277 18.3638 3.04316 20.1603 4.83968C20.7121 5.39144 21.1982 5.99659 21.6136 6.64298C20.2612 8.0225 18.6795 8.91438 17.0097 9.45657Z" fill="white"/>
</svg>
