<svg width="21" height="20" viewBox="0 0 21 20" fill="none" xmlns="http://www.w3.org/2000/svg">
<path d="M20.117 11.7856V19.223H15.8053V12.2837C15.8053 10.5405 15.1816 9.35083 13.6209 9.35083C12.4295 9.35083 11.7205 10.1526 11.4086 10.9281C11.2949 11.2054 11.2656 11.5913 11.2656 11.9794V19.223H6.95242C6.95242 19.223 7.01051 7.47012 6.95242 6.25244H11.2652V8.09096C11.2564 8.10471 11.2451 8.11954 11.2368 8.13287H11.2652V8.09096C11.8382 7.20844 12.8615 5.94773 15.1519 5.94773C17.9897 5.94768 20.117 7.80154 20.117 11.7856ZM2.44065 0C0.96512 0 0 0.967832 0 2.24056C0 3.48556 0.937197 4.48277 2.3834 4.48277H2.41221C3.91632 4.48277 4.85174 3.48575 4.85174 2.24056C4.8234 0.967832 3.91632 0 2.44065 0ZM0.256165 19.223H4.5677V6.25244H0.256165V19.223Z" fill="white"/>
</svg>
